<?xml version="1.0" ?><svg data-name="Layer 1" id="Layer_1" viewBox="0 0 128 128" xmlns="http://www.w3.org/2000/svg"><defs><style>.cls-1{fill:#b6e5ff;}.cls-12,.cls-15,.cls-18,.cls-2,.cls-5{fill:none;}.cls-2{stroke:#fff;stroke-linecap:square;}.cls-18,.cls-2,.cls-5,.cls-6,.cls-7{stroke-miterlimit:10;}.cls-2,.cls-5{stroke-width:2px;}.cls-3{fill:#86c1db;}.cls-4{fill:#eefaff;}.cls-5{stroke:#b6e5ff;}.cls-6{fill:#ffd297;}.cls-6,.cls-7{stroke:#cc9246;}.cls-15,.cls-6,.cls-7{stroke-linecap:round;}.cls-12,.cls-15,.cls-18,.cls-6,.cls-7{stroke-width:4px;}.cls-7{fill:#ffc954;}.cls-8{fill:#e2ddbf;}.cls-9{fill:#f4f0df;}.cls-10{fill:#bcb79f;}.cls-11{fill:#99947e;}.cls-12{stroke:#7a4d2d;}.cls-12,.cls-15{stroke-linejoin:round;}.cls-13{fill:#c5d8e2;}.cls-14{fill:#e6f0f4;}.cls-15{stroke:#a5b2bf;}.cls-16{fill:#9b6736;}.cls-17{fill:#925a27;}.cls-18{stroke:#7f4f2b;}</style></defs><title/><circle class="cls-1" cx="65" cy="60" r="60"/><path class="cls-1" d="M117,17a9.94,9.94,0,0,0-4.29,1A16,16,0,0,0,81,21c0,.09,0,.18,0,.26A8,8,0,1,0,79,37h38a10,10,0,0,0,0-20Z"/><circle class="cls-2" cx="34" cy="8" r="5"/><path class="cls-3" d="M118.08,64.79l-.21-.56-.57-.1a1.18,1.18,0,0,0-1.11.48,3.71,3.71,0,0,1-1.06.82c.55-1,1.08-2.08,1.31-2.55,1.9-3.88,1.78-4.19,1.64-4.59l-.22-.56-.57-.1a1.14,1.14,0,0,0-1.1.48,3.71,3.71,0,0,1-.7.62c.21-.53.4-1,.52-1.35,1.39-3.76,1.21-4.26,1.1-4.56a1,1,0,0,0-.81-.68,1.15,1.15,0,0,0-1.12.47c.09-.91.14-1.76.17-2.18.26-4.35,0-4.63-.71-4.88a1,1,0,0,0-.61,0c-.08-.57-.16-1-.21-1.33a26,26,0,0,0-.73-3.29c.45-2.53,1.3-5.9,2.09-6.7a1,1,0,0,0-1.41-1.41c-1.21,1.21-2,4.64-2.48,6.83-.48-1.9-1.23-4-2.32-4.76V28a1,1,0,0,0-2,0v6.86c-1.08.81-1.83,2.86-2.32,4.76-.43-2.19-1.27-5.62-2.48-6.83a1,1,0,0,0-1.41,1.41c.79.79,1.65,4.16,2.09,6.7a26,26,0,0,0-.73,3.29c0,.28-.13.76-.21,1.33a1,1,0,0,0-.61,0c-.69.25-1,.53-.71,4.88,0,.42.08,1.27.17,2.18a1.15,1.15,0,0,0-1.12-.47,1,1,0,0,0-.81.68c-.11.3-.29.8,1.1,4.56.12.34.31.82.52,1.35a3.71,3.71,0,0,1-.7-.62,1.14,1.14,0,0,0-1.1-.48l-.59.12-.2.54c-.14.39-.26.7,1.64,4.59.23.47.76,1.54,1.31,2.55a3.71,3.71,0,0,1-1.06-.82,1.18,1.18,0,0,0-1.11-.48l-.58.11-.2.54c-.15.41-.25.68,1.66,4.35a36.29,36.29,0,0,0,2.54,4.32,4,4,0,0,0,2.72,1.41l.36,0a4,4,0,0,0,1.81-.44V96a1,1,0,0,0,2,0V74.45a4,4,0,0,0,1.81.44l.36,0a4,4,0,0,0,2.72-1.41,36.26,36.26,0,0,0,2.54-4.32C118.33,65.47,118.23,65.2,118.08,64.79Z"/><path class="cls-4" d="M117,12a9.94,9.94,0,0,0-4.29,1A16,16,0,0,0,81,16c0,.09,0,.18,0,.26A8,8,0,1,0,79,32h38a10,10,0,0,0,0-20Z"/><path class="cls-4" d="M50.43,29.08a7.52,7.52,0,0,0-3.25.74,12.11,12.11,0,0,0-24,2.29c0,.07,0,.13,0,.2a6.05,6.05,0,1,0-1.52,11.91H50.43a7.57,7.57,0,1,0,0-15.14Z"/><path class="cls-3" d="M68.08,53.79l-.21-.56-.57-.1a1.18,1.18,0,0,0-1.11.48,3.71,3.71,0,0,1-1.06.82c.55-1,1.08-2.08,1.31-2.55,1.9-3.88,1.78-4.19,1.64-4.59l-.22-.56-.57-.1a1.14,1.14,0,0,0-1.1.48,3.71,3.71,0,0,1-.7.62c.21-.53.4-1,.52-1.35,1.39-3.76,1.21-4.26,1.1-4.56a1,1,0,0,0-.81-.68,1.15,1.15,0,0,0-1.12.47c.09-.91.14-1.76.17-2.18.26-4.35,0-4.63-.71-4.88a1,1,0,0,0-.61,0c-.08-.57-.16-1-.21-1.33a26,26,0,0,0-.73-3.29c.45-2.53,1.3-5.9,2.09-6.7a1,1,0,0,0-1.41-1.41c-1.21,1.21-2,4.64-2.48,6.83-.48-1.9-1.23-4-2.32-4.76V17a1,1,0,0,0-2,0v6.86c-1.08.81-1.83,2.86-2.32,4.76-.43-2.19-1.27-5.62-2.48-6.83a1,1,0,0,0-1.41,1.41c.79.79,1.65,4.16,2.09,6.7a26,26,0,0,0-.73,3.29c0,.28-.13.76-.21,1.33a1,1,0,0,0-.61,0c-.69.25-1,.53-.71,4.88,0,.42.08,1.27.17,2.18a1.15,1.15,0,0,0-1.12-.47,1,1,0,0,0-.81.68c-.11.3-.29.8,1.1,4.56.12.34.31.82.52,1.35a3.71,3.71,0,0,1-.7-.62,1.14,1.14,0,0,0-1.1-.48l-.59.12-.2.54c-.14.39-.26.7,1.64,4.59.23.47.76,1.54,1.31,2.55a3.71,3.71,0,0,1-1.06-.82,1.18,1.18,0,0,0-1.11-.48l-.58.11-.2.54c-.15.41-.25.68,1.66,4.35a36.29,36.29,0,0,0,2.54,4.32,4,4,0,0,0,2.72,1.41l.36,0A4,4,0,0,0,57,63.45V85a1,1,0,0,0,2,0V63.45a4,4,0,0,0,1.81.44l.36,0a4,4,0,0,0,2.72-1.41,36.26,36.26,0,0,0,2.54-4.32C68.33,54.47,68.23,54.2,68.08,53.79Z"/><path class="cls-5" d="M101.12,9.88A3,3,0,0,0,96,12h0a3,3,0,0,0-5.12-2.12A2.86,2.86,0,0,0,91,14l5,6,5-6A2.86,2.86,0,0,0,101.12,9.88Z"/><line class="cls-6" x1="36.16" x2="108.99" y1="91.84" y2="19.01"/><path class="cls-6" d="M110.41,28.91s10.61-7.78,14.85-7.78"/><path class="cls-6" d="M99.09,17.59S106.87,7,106.87,2.75"/><line class="cls-6" x1="113.23" x2="123.84" y1="14.77" y2="4.16"/><path class="cls-7" d="M106.16,30.32a6,6,0,0,1-8.49-8.49c2.34-2.34,13.44-9.19,15.56-7.07S108.51,28,106.16,30.32Z"/><path class="cls-7" d="M96.17,33.51a6,6,0,0,1-9.83-6.88c1.9-2.71,16-12.38,14.09-9.66C97,21.87,98.07,30.79,96.17,33.51Z"/><path class="cls-7" d="M94.49,31.83a6,6,0,0,0,6.88,9.83c2.71-1.9,12.38-16,9.66-14.09C106.13,31,97.21,29.93,94.49,31.83Z"/><path class="cls-7" d="M88.06,39.57A6,6,0,1,1,77.18,34.5c1.4-3,12.89-15.68,11.49-12.67C86.14,27.26,89.46,36.57,88.06,39.57Z"/><path class="cls-7" d="M88.43,39.94A6,6,0,1,0,93.5,50.82c3-1.4,15.68-12.89,12.67-11.49C100.74,41.86,91.43,38.54,88.43,39.94Z"/><path class="cls-7" d="M73.66,53.86a6,6,0,1,1-12-1C62,49.51,68,32.68,67.66,36,67.14,42,73.95,50.56,73.66,53.86Z"/><path class="cls-7" d="M75.14,54.34a6,6,0,0,0,1,12C79.49,66,96.32,60,93,60.34,87,60.86,78.44,54.05,75.14,54.34Z"/><path class="cls-7" d="M81.44,45.08a6,6,0,0,1-12-1c.29-3.3,7.66-18.72,7.37-15.42C76.33,34.6,81.73,41.78,81.44,45.08Z"/><path class="cls-7" d="M82.92,46.56a6,6,0,1,0,1,12c3.3-.29,18.72-7.66,15.42-7.37C93.4,51.67,86.22,46.27,82.92,46.56Z"/><path class="cls-7" d="M65.17,63.35a6,6,0,0,1-12-1c.29-3.3,5.54-19.42,5.25-16.12C57.95,52.16,65.46,60,65.17,63.35Z"/><path class="cls-7" d="M66.65,62.83a6,6,0,0,0,1,12c3.3-.29,19.42-5.54,16.12-5.25C77.84,70.05,70,62.54,66.65,62.83Z"/><path class="cls-8" d="M114,88.87C114,112.64,92.51,114,66,114s-48-1.36-48-25.13S39.49,44,66,44,114,65.1,114,88.87Z"/><path class="cls-9" d="M66,44C39.49,44,18,65.1,18,88.87S39.49,114,66,114s48-1.36,48-25.13S92.51,44,66,44Zm37,58c-4,3-16,0-23,5s-26,2-28,0-19-2-19-2S19,94,25,89s8-23,10-24c0,0,2-8,8-8s16-6,16-6,11-3,19,1,17,9,17,9,11,7,10,14S107,99,103,102Z"/><path class="cls-10" d="M40,80H18a40,40,0,0,0-1,8.87A25.2,25.2,0,0,0,19.67,101H24a3,3,0,0,1,6,0,3,3,0,0,1,6,0,3,3,0,0,1,6,0,3,3,0,0,1,6,0,3,3,0,0,1,6,0,3,3,0,0,1,6,0,3,3,0,0,1,6,0,3,3,0,0,1,6,0,3,3,0,0,1,6,0,3,3,0,0,1,6,0,3,3,0,0,1,6,0,3,3,0,0,1,6,0,3,3,0,0,1,6,0,3,3,0,0,1,6,0,3,3,0,0,1,3.61-2.94A28.11,28.11,0,0,0,113,88.87c0-.7,0-1.39-.06-2.08A54,54,0,0,0,97,83C68,80,40,80,40,80Z"/><circle class="cls-11" cx="70" cy="104" r="4"/><circle class="cls-11" cx="70" cy="71" r="4"/><circle class="cls-11" cx="40" cy="71" r="4"/><circle class="cls-11" cx="50" cy="98" r="4"/><circle class="cls-11" cx="86" cy="62" r="3"/><circle class="cls-11" cx="53" cy="62" r="3"/><circle class="cls-11" cx="91" cy="104" r="3"/><path class="cls-12" d="M114,88.87C114,112.64,92.51,114,66,114s-48-1.36-48-25.13S39.49,44,66,44,114,65.1,114,88.87Z"/><path class="cls-13" d="M97,76c-29-3-57-3-57-3H15l4,21h5a3,3,0,0,1,6,0,3,3,0,0,1,6,0,3,3,0,0,1,6,0,3,3,0,0,1,6,0,3,3,0,0,1,6,0,3,3,0,0,1,6,0,3,3,0,0,1,6,0,3,3,0,0,1,6,0,3,3,0,0,1,6,0,3,3,0,0,1,6,0,3,3,0,0,1,6,0,3,3,0,0,1,6,0,3,3,0,0,1,6,0,3,3,0,0,1,6,0,3,3,0,0,1,6,0,3,3,0,0,1,6,0h5S126,79,97,76Z"/><path class="cls-14" d="M84,76c-29-3-37-3-37-3H12v8a8.66,8.66,0,0,1,8.09,5l2.64-7H47S55,79,84,76Z"/><path class="cls-15" d="M14.1,82.5C19,85.92,20,94,20,94h4a3,3,0,0,1,6,0,3,3,0,0,1,6,0,3,3,0,0,1,6,0,3,3,0,0,1,6,0,3,3,0,0,1,6,0,3,3,0,0,1,6,0,3,3,0,0,1,6,0,3,3,0,0,1,6,0,3,3,0,0,1,6,0,3,3,0,0,1,6,0,3,3,0,0,1,6,0,3,3,0,0,1,6,0,3,3,0,0,1,6,0,3,3,0,0,1,6,0,3,3,0,0,1,6,0,3,3,0,0,1,6,0h5s1-15-28-18-57-3-57-3H13.75"/><rect class="cls-16" height="12" rx="4" ry="4" width="124" x="2" y="114"/><path class="cls-17" d="M15,114H6a4,4,0,0,0-3,1.39v9.23A4,4,0,0,0,6,126h9Z"/><rect class="cls-17" height="12" width="12" x="28" y="114"/><rect class="cls-17" height="12" width="12" x="53" y="114"/><rect class="cls-17" height="12" width="12" x="77" y="114"/><rect class="cls-17" height="12" width="12" x="102" y="114"/><rect class="cls-18" height="12" rx="4" ry="4" width="124" x="2" y="114"/><line class="cls-6" x1="35.58" x2="13.02" y1="124.5" y2="24"/><path class="cls-6" d="M22.14,28.1S21.25,15,23.52,11.39"/><path class="cls-6" d="M6.53,31.6S5,27.67,3,23.84"/><line class="cls-6" x1="11.71" x2="8.42" y1="18.14" y2="3.5"/><path class="cls-7" d="M21.07,32.44A6,6,0,1,1,9.36,35.07c-.73-3.23-.58-16.27,2.35-16.93S20.34,29.21,21.07,32.44Z"/><path class="cls-7" d="M18.41,42.58A6,6,0,1,1,7.34,47.2c-1.28-3.06-1.9-20.13-.62-17.08C9,35.66,17.13,39.52,18.41,42.58Z"/><path class="cls-7" d="M16.09,43.1a6,6,0,0,0,12-.55c-.15-3.31-6.89-19-6.73-15.71C21.62,32.84,15.94,39.79,16.09,43.1Z"/><path class="cls-7" d="M19.19,52.68a6,6,0,1,1-10.1,6.47C7.3,56.37,2.74,39.88,4.53,42.67,7.77,47.72,17.4,49.89,19.19,52.68Z"/><path class="cls-7" d="M19.7,52.57a6,6,0,0,0,11.9,1.54C32,50.82,29.1,34,28.68,37.25,27.91,43.2,20.13,49.28,19.7,52.57Z"/><path class="cls-7" d="M22.71,72a6,6,0,0,1-7.28,9.54c-2.63-2-13.66-16-11-14C9.17,71.1,20.08,69.95,22.71,72Z"/><path class="cls-7" d="M24.75,71.5A6,6,0,1,0,35.41,77c1.52-2.94,5.5-20.35,4-17.41C36.63,64.94,26.28,68.56,24.75,71.5Z"/><path class="cls-7" d="M20.31,61.22A6,6,0,1,1,13,70.76c-2.63-2-11.71-16.49-9.08-14.48C8.72,59.93,17.67,59.21,20.31,61.22Z"/><path class="cls-7" d="M22.35,60.77A6,6,0,0,0,33,66.28c1.52-2.94,3.54-19.91,2-17C32.27,54.64,23.87,57.82,22.35,60.77Z"/><path class="cls-7" d="M25.34,83.67a6,6,0,0,1-7.28,9.54c-2.63-2-13.45-15.07-10.81-13.06C12,83.78,22.71,81.66,25.34,83.67Z"/><path class="cls-7" d="M27.38,83.21A6,6,0,1,0,38,88.72c1.52-2.94,5.71-19.37,4.19-16.43C39.48,77.62,28.9,80.27,27.38,83.21Z"/><line class="cls-5" x2="10" y1="100" y2="100"/><line class="cls-5" x1="5" x2="5" y1="105" y2="95"/></svg>