<?xml version="1.0" ?><svg id="Layer_1" style="enable-background:new 0 0 418.808 418.808;" version="1.1" viewBox="0 0 418.808 418.808" xml:space="preserve" xmlns="http://www.w3.org/2000/svg" xmlns:xlink="http://www.w3.org/1999/xlink"><g id="Spicy_x5F_shrimp_x5F_soup"><path d="M386.21,128.548l-2.523-13.989l-13.989-2.523c-4.435-0.8-8.895,1.274-11.141,5.182   l-2.005,3.488l3.394-12.568c1.175-4.351-0.512-8.971-4.214-11.542l-11.676-8.108l-11.676,8.108   c-3.702,2.571-5.389,7.191-4.214,11.542l3.394,12.568l-2.005-3.488c-2.246-3.908-6.705-5.982-11.141-5.182l-13.989,2.523   l-2.523,13.989c-0.8,4.435,1.274,8.895,5.182,11.141l34.703,19.946l2.27-2.27l2.27,2.27l34.703-19.946   C384.936,137.443,387.01,132.983,386.21,128.548z" id="XMLID_148_" style="fill:#378F5D;"/><path d="M320.072,99.353l-2.523-13.989l-13.989-2.523c-4.435-0.8-8.895,1.274-11.141,5.182   l-2.005,3.488l3.394-12.568c1.175-4.351-0.512-8.971-4.214-11.542l-11.676-8.108l-11.676,8.108   c-3.702,2.571-5.389,7.191-4.214,11.542l3.394,12.568l-2.005-3.488c-2.246-3.907-6.705-5.982-11.141-5.182l-13.989,2.523   l-2.523,13.989c-0.8,4.435,1.274,8.895,5.182,11.141l34.703,19.946l2.27-2.27l2.27,2.27l34.703-19.946   C318.798,108.248,320.872,103.789,320.072,99.353z" id="XMLID_33_" style="fill:#6DCC96;"/><path d="M409.79,158.952h-32.655c-4.96,0-9.018-4.058-9.018-9.018v0   c0-4.96,4.058-9.018,9.018-9.018h32.655c4.96,0,9.018,4.058,9.018,9.018v0C418.808,154.894,414.75,158.952,409.79,158.952z" id="XMLID_463_" style="fill:#2D2C3B;"/><path d="M41.673,158.952H9.018c-4.96,0-9.018-4.058-9.018-9.018v0   c0-4.96,4.058-9.018,9.018-9.018h32.655c4.96,0,9.018,4.058,9.018,9.018v0C50.691,154.894,46.633,158.952,41.673,158.952z" id="XMLID_478_" style="fill:#2D2C3B;"/><polygon id="XMLID_446_" points="181.862,53.121 234.446,53.121 254.446,184.47 161.862,184.47  " style="fill:#C2B9B9;"/><path d="M303.905,365.687H112.403l0.143-0.257c21.594-38.776,32.928-82.424,32.928-126.807   v-14.575h125.361v14.575c0,44.383,11.334,88.031,32.928,126.807L303.905,365.687z" id="XMLID_375_" style="fill:#C2B9B9;"/><circle cx="302.106" cy="135.319" id="XMLID_216_" r="19.128" style="fill:#EF5B62;"/><path d="M236.059,271.894h-55.81c-57.812,0-110.306-33.741-134.314-86.333l-20.589-45.102   h365.616l-20.589,45.102C346.365,238.152,293.871,271.894,236.059,271.894z" id="XMLID_294_" style="fill:#EBEAE8;"/><path d="M112.546,365.354l-0.143,0.049h191.502l-0.143-0.049   c-4.201-7.544-8.009-14.951-11.426-22.951H123.971C120.555,350.404,116.747,357.81,112.546,365.354z" id="XMLID_508_" style="fill:#595975;"/><path d="M160.517,323.077c-2.042,6.458-4.321,12.899-6.836,19.194h108.947   c-2.516-6.296-4.795-12.737-6.837-19.195c-2.602-8.229-10.255-13.805-18.886-13.805h-57.502   C170.772,309.272,163.119,314.848,160.517,323.077z" id="XMLID_506_" style="fill:#2D2C3B;"/><rect height="50.225" id="XMLID_602_" style="fill:#F97C5F;" width="50.225" x="162.384" y="90.233"/><path d="M262.834,140.459h-50.225V90.233h0C240.347,90.233,262.834,112.72,262.834,140.459   L262.834,140.459z" id="XMLID_633_" style="fill:#FF9D83;"/><path d="M227.154,140.771h-100.5c-20.953,0-38-17.047-38-38s17.047-38,38-38h16.5v6h-16.5   c-17.645,0-32,14.355-32,32s14.355,32,32,32h100.5V140.771z" id="XMLID_1379_" style="fill:#F4B490;"/><path d="M141.404,134.404v-44H39.889c0,19,16.401,36,35.738,44H66   c-17.645,0-32-14.355-32-32s14.355-32,32-32h16.404v-6H66c-20.953,0-38,17.047-38,38s17.047,38,38,38h100.404v-6H141.404z" id="XMLID_146_" style="fill:#EF5B62;"/><path d="M192.514,140.459h-40.489c-27.739,0-61.388-22.487-61.388-50.225v0h101.877V140.459   z" id="XMLID_691_" style="fill:#F4B490;"/><rect height="50.225" id="XMLID_690_" style="fill:#F47C69;" width="50.225" x="192.131" y="90.233"/><path d="M292.581,140.459h-50.225V90.233h0C270.095,90.233,292.581,112.72,292.581,140.459   L292.581,140.459z" id="XMLID_689_" style="fill:#F4B490;"/><circle cx="132.966" cy="103.346" id="XMLID_704_" r="4.884" style="fill:#563A3A;"/><polygon id="XMLID_128_" points="378.662,167.404 37.646,167.404 39.016,170.404 377.292,170.404  " style="fill:#9C9BB7;"/></g><g/><g/><g/><g/><g/><g/><g/><g/><g/><g/><g/><g/><g/><g/><g/></svg>